<?xml version="1.0" encoding="UTF-8"?>
<svg version="1.1" xmlns="http://www.w3.org/2000/svg" width="372" height="76">
<path d="M0 0 C122.76 0 245.52 0 372 0 C372 25.08 372 50.16 372 76 C249.24 76 126.48 76 0 76 C0 50.92 0 25.84 0 0 Z " fill="#FDFDFE" transform="translate(0,0)"/>
<path d="M0 0 C5.33046434 5.29202349 8.28298362 9.57871631 8.4375 17.25 C8.33969681 23.47447435 7.16710038 27.37623108 3 32 C-2.94488922 37.64764476 -8.70055692 38.57728386 -16.69921875 38.44140625 C-22.58812064 37.65389629 -26.79129694 34.86085494 -30.40234375 30.18359375 C-33.69891652 24.75187421 -34.91847041 19.31043197 -34 13 C-31.7769225 5.97290625 -28.43262361 1.88165708 -22.18359375 -1.94140625 C-15.13745964 -5.35733173 -6.42795994 -4.38269996 0 0 Z " fill="#567CC6" transform="translate(203,21)"/>
<path d="M0 0 C4.45531067 2.11041032 7.15810959 4.39527396 9 9 C9.55734283 13.2497391 9.52262552 16.78970932 7.8125 20.75 C5.70744966 23.36316593 3.43668875 25.69502416 1 28 C4.465 27.505 4.465 27.505 8 27 C8.16798096 26.46125244 8.33596191 25.92250488 8.5090332 25.36743164 C10.3806597 19.54201766 12.6542636 14.00329064 15.1875 8.4375 C15.73954102 7.21063477 15.73954102 7.21063477 16.30273438 5.95898438 C17.19795013 3.97090782 18.0984165 1.98519692 19 0 C21.64 0 24.28 0 27 0 C39 23.37752161 39 23.37752161 39 28 C36.36 28 33.72 28 31 28 C30.34 26.35 29.68 24.7 29 23 C25.04 22.67 21.08 22.34 17 22 C16.67 23.98 16.34 25.96 16 28 C13.69 28 11.38 28 9 28 C9.33 29.32 9.66 30.64 10 32 C6.90592794 34.06271471 3.84823364 34.52976227 0.15234375 34.4609375 C-3.29904769 33.72180104 -5.52592602 31.67932664 -8.1875 29.44921875 C-10.01650074 27.84141472 -10.01650074 27.84141472 -12.6875 26.9375 C-15.91575702 25.62874715 -17.72306397 23.59317714 -20 21 C-21.35698258 16.92905226 -21.52387231 13.25646256 -21 9 C-16.42181679 -0.15636643 -9.47821158 -1.15587946 0 0 Z " fill="#090909" transform="translate(36,22)"/>
<path d="M0 0 C5 0 10 0 15 0 C15.33 1.32 15.66 2.64 16 4 C16.433125 3.525625 16.86625 3.05125 17.3125 2.5625 C20.40153749 -0.2977199 23.85711231 -0.33410649 27.93359375 -0.2890625 C31.3150794 0.18396196 33.42666084 1.8555507 36 4 C38.45917586 7.6887638 38.81591937 10.7184429 38 15 C36.25549494 18.0220794 34.16697836 20.41651082 31 22 C26.90842645 22.51512617 22.76410454 22.94367269 19.04296875 20.953125 C16.90684313 19.18601378 15.24550829 17.49101659 14 15 C13.86584528 12.3276379 13.95681459 9.67749512 14 7 C12.35 7.66 10.7 8.32 9 9 C8.67 13.29 8.34 17.58 8 22 C5.36 22 2.72 22 0 22 C0 14.74 0 7.48 0 0 Z " fill="#906BC1" transform="translate(245,28)"/>
<path d="M0 0 C4.74131316 2.37065658 5.3271036 3.06495563 7 8 C7.86827092 15.25761237 7.91357707 21.41317152 3.42578125 27.41796875 C-0.72672693 32.02554632 -4.89329829 34.62640929 -11.0859375 35.37109375 C-18.48549772 35.52049105 -22.51394249 35.10330931 -28 30 C-26.50902342 26.2047869 -24.24299151 24.38957269 -21 22 C-21 22.99 -21 23.98 -21 25 C-14.73 21.7 -8.46 18.4 -2 15 C-3.32 14.01 -4.64 13.02 -6 12 C-6.99 11.01 -7.98 10.02 -9 9 C-6.03 6.03 -3.06 3.06 0 0 Z " fill="#4768B9" transform="translate(204,24)"/>
<path d="M0 0 C2.64 0 5.28 0 8 0 C8 9.57 8 19.14 8 29 C4.66666667 29 1.33333333 29 -2 29 C-3.27875 29.103125 -4.5575 29.20625 -5.875 29.3125 C-9.4434544 29.32564348 -9.92400934 29.05982244 -12.9375 26.6875 C-16.14662807 22.50590887 -16.52758298 19.18789933 -16 14 C-14.22396702 11.02448205 -12.14489623 8.57244812 -9 7 C-2.46666667 6.76666667 -2.46666667 6.76666667 0 8 C0 5.36 0 2.72 0 0 Z " fill="#8E69C1" transform="translate(348,21)"/>
<path d="M0 0 C2.51625 -0.061875 5.0325 -0.12375 7.625 -0.1875 C8.79603271 -0.22846802 8.79603271 -0.22846802 9.99072266 -0.27026367 C15.59351625 -0.3364048 19.55396927 0.94849036 23.9375 4.625 C25.65124322 8.45572014 25.21045239 12.03321628 24 16 C21.05095157 19.1042615 18.33259122 20.88849946 13.95703125 21.09765625 C13.24933594 21.08605469 12.54164062 21.07445313 11.8125 21.0625 C9.9253125 21.0315625 9.9253125 21.0315625 8 21 C8 23.31 8 25.62 8 28 C5.36 28 2.72 28 0 28 C0 18.76 0 9.52 0 0 Z " fill="#906AC1" transform="translate(84,22)"/>
<path d="M0 0 C2.64 0 5.28 0 8 0 C20 23.37752161 20 23.37752161 20 28 C17.36 28 14.72 28 12 28 C11.34 26.35 10.68 24.7 10 23 C6.04 22.67 2.08 22.34 -2 22 C-2.33 23.98 -2.66 25.96 -3 28 C-9.0546875 28.9765625 -9.0546875 28.9765625 -11 29 C-11.66 28.34 -12.32 27.68 -13 27 C-12.34 27 -11.68 27 -11 27 C-10.83201904 26.46125244 -10.66403809 25.92250488 -10.4909668 25.36743164 C-8.6193403 19.54201766 -6.3457364 14.00329064 -3.8125 8.4375 C-3.44447266 7.61958984 -3.07644531 6.80167969 -2.69726562 5.95898438 C-1.80204987 3.97090782 -0.9015835 1.98519692 0 0 Z " fill="#0E0E0E" transform="translate(55,22)"/>
<path d="M0 0 C2.51464323 1.07372012 3.93311945 2.16277284 6 4 C4.68 5.65 3.36 7.3 2 9 C1.39671875 8.83242188 0.7934375 8.66484375 0.171875 8.4921875 C-0.62734375 8.28851563 -1.4265625 8.08484375 -2.25 7.875 C-3.43335938 7.56175781 -3.43335938 7.56175781 -4.640625 7.2421875 C-7.45700532 6.95308886 -8.66851898 7.44224056 -11 9 C-12.38550197 11.77100394 -12.1877467 13.9334706 -12 17 C-10.39519216 20.12606964 -10.39519216 20.12606964 -8.0546875 20.51171875 C-7.33539063 20.56972656 -6.61609375 20.62773438 -5.875 20.6875 C-4.59625 20.790625 -3.3175 20.89375 -2 21 C-2 18.36 -2 15.72 -2 13 C0.64 13 3.28 13 6 13 C6 16.96 6 20.92 6 25 C0.37318666 28.75120889 -5.38672142 28.81645415 -12 28 C-16.45411364 25.8901567 -19.19291449 23.61810742 -21 19 C-21.68426057 13.95674616 -21.5739862 10.16923116 -19.3125 5.5625 C-13.73192301 -0.62138261 -7.9687509 -1.02163473 0 0 Z " fill="#916CC2" transform="translate(238,22)"/>
<path d="M0 0 C2.64 0 5.28 0 8 0 C8.67119549 1.4562545 9.33681807 2.91507867 10 4.375 C10.556875 5.59316406 10.556875 5.59316406 11.125 6.8359375 C12 9 12 9 12 11 C12.66 11 13.32 11 14 11 C14.20496094 10.37351562 14.40992188 9.74703125 14.62109375 9.1015625 C14.89050781 8.28429688 15.15992188 7.46703125 15.4375 6.625 C15.70433594 5.81289063 15.97117188 5.00078125 16.24609375 4.1640625 C17 2 17 2 18 0 C20.31 0 22.62 0 25 0 C24.03688942 5.58554297 21.85557964 10.4438435 19.625 15.625 C19.02558594 17.05585937 19.02558594 17.05585937 18.4140625 18.515625 C18.0221875 19.43085937 17.6303125 20.34609375 17.2265625 21.2890625 C16.87158691 22.12131348 16.51661133 22.95356445 16.15087891 23.81103516 C14.99224716 26.01474585 13.90055797 27.40722596 12 29 C10.0625 29.58203125 10.0625 29.58203125 8 29.8125 C7.319375 29.90144531 6.63875 29.99039063 5.9375 30.08203125 C4 30 4 30 1 28 C1.33 26.35 1.66 24.7 2 23 C4.31 23 6.62 23 9 23 C8.72736328 22.37432129 8.45472656 21.74864258 8.17382812 21.10400391 C6.94546157 18.27928577 5.72266758 15.45218929 4.5 12.625 C4.07074219 11.64015625 3.64148438 10.6553125 3.19921875 9.640625 C2.79316406 8.69960938 2.38710937 7.75859375 1.96875 6.7890625 C1.59169922 5.91975098 1.21464844 5.05043945 0.82617188 4.15478516 C0 2 0 2 0 0 Z " fill="#916DC1" transform="translate(139,28)"/>
<path d="M0 0 C3.66666667 0 7.33333333 0 11 0 C12.11375 -0.103125 13.2275 -0.20625 14.375 -0.3125 C18 0 18 0 20.70703125 1.96875 C23.79172387 6.04664007 23.58239299 8.85892553 23.3125 13.8125 C23.28994141 14.60076172 23.26738281 15.38902344 23.24414062 16.20117188 C23.18554161 18.13493929 23.09586827 20.06772167 23 22 C20.36 22 17.72 22 15 22 C15 17.05 15 12.1 15 7 C13.02 7.66 11.04 8.32 9 9 C8.67 13.29 8.34 17.58 8 22 C5.36 22 2.72 22 0 22 C0 14.74 0 7.48 0 0 Z " fill="#926EC1" transform="translate(308,28)"/>
<path d="M0 0 C2.93423195 1.79646854 4.47205355 2.9441071 6 6 C6.07181821 8.71760108 6.09299506 11.40859388 6.0625 14.125 C6.05798828 14.87910156 6.05347656 15.63320313 6.04882812 16.41015625 C6.03703499 18.27347127 6.01909942 20.13674555 6 22 C2.66666667 22 -0.66666667 22 -4 22 C-5.134375 22.061875 -6.26875 22.12375 -7.4375 22.1875 C-11 22 -11 22 -13.4375 20.9375 C-15 19 -15 19 -15.5 15.5 C-15 12 -15 12 -13.5625 10.0625 C-9.74098146 8.47796792 -6.08137509 8.76453605 -2 9 C-2 8.34 -2 7.68 -2 7 C-7.08303686 6.88679144 -7.08303686 6.88679144 -12 8 C-14 5 -14 5 -13.8125 2.875 C-13.544375 2.25625 -13.27625 1.6375 -13 1 C-8.66679898 -0.44440034 -4.5285153 -0.54168843 0 0 Z " fill="#8F6BC1" transform="translate(134,28)"/>
<path d="M0 0 C2.64 0 5.28 0 8 0 C8.33 4.62 8.66 9.24 9 14 C10.32 14 11.64 14 13 14 C14.35091528 11.29816945 14.33858058 8.88191794 14.5625 5.875 C14.64628906 4.77929688 14.73007812 3.68359375 14.81640625 2.5546875 C14.87699219 1.71164063 14.93757813 0.86859375 15 0 C17.31 0 19.62 0 22 0 C22 7.26 22 14.52 22 22 C18.66666667 22 15.33333333 22 12 22 C10.88625 22.103125 9.7725 22.20625 8.625 22.3125 C5 22 5 22 2.29296875 20.03125 C-0.79172387 15.95335993 -0.58239299 13.14107447 -0.3125 8.1875 C-0.28994141 7.39923828 -0.26738281 6.61097656 -0.24414062 5.79882812 C-0.18554161 3.86506071 -0.09586827 1.93227833 0 0 Z " fill="#8F6AC0" transform="translate(284,28)"/>
<path d="M0 0 C2.64 0 5.28 0 8 0 C8 9.57 8 19.14 8 29 C5.36 29 2.72 29 0 29 C0 19.43 0 9.86 0 0 Z " fill="#906CC0" transform="translate(110,21)"/>
<path d="M0 0 C3.11389681 1.24555872 5.86659055 2.38024882 8.76953125 3.9453125 C9.43017578 4.29980469 10.09082031 4.65429688 10.77148438 5.01953125 C11.44501953 5.38433594 12.11855469 5.74914063 12.8125 6.125 C13.50537109 6.49753906 14.19824219 6.87007812 14.91210938 7.25390625 C16.60934836 8.16690377 18.30485138 9.08312716 20 10 C17.9861609 12.15738318 16.09796497 13.65765662 13.49609375 15.04296875 C12.83802734 15.39423828 12.17996094 15.74550781 11.50195312 16.10742188 C10.48004883 16.64206055 10.48004883 16.64206055 9.4375 17.1875 C8.75236328 17.55552734 8.06722656 17.92355469 7.36132812 18.30273438 C2.26204487 21 2.26204487 21 0 21 C0 14.07 0 7.14 0 0 Z " fill="#F4C70C" transform="translate(183,28)"/>
<path d="M0 0 C4.66666667 0 9.33333333 0 14 0 C14.3125 2.8125 14.3125 2.8125 14 6 C13.1853125 6.4228125 12.370625 6.845625 11.53125 7.28125 C8.66877369 8.80358645 8.66877369 8.80358645 8.29296875 12.13671875 C8.25816406 13.30847656 8.22335938 14.48023438 8.1875 15.6875 C8.13980469 16.86699219 8.09210938 18.04648437 8.04296875 19.26171875 C8.02169922 20.61716797 8.02169922 20.61716797 8 22 C5.36 22 2.72 22 0 22 C0 14.74 0 7.48 0 0 Z " fill="#906DBF" transform="translate(245,28)"/>
<path d="M0 0 C3.4375 0.9375 3.4375 0.9375 5.375 2 C7.13566113 5.21061736 7.19103146 8.43745202 6.4375 11.9375 C4.0191209 14.70136182 2.47092666 15.73585577 -1.125 16.4375 C-4.52561101 15.73993877 -5.61695623 14.81978706 -7.5625 11.9375 C-8.38693434 7.87362165 -8.16831932 4.93104368 -6 1.375 C-3.5625 -0.0625 -3.5625 -0.0625 0 0 Z " fill="#F4F4F4" transform="translate(30.5625,28.0625)"/>
<path d="M0 0 C-0.99 0.495 -0.99 0.495 -2 1 C-2 1.99 -2 2.98 -2 4 C-2.73605469 4.21914063 -3.47210938 4.43828125 -4.23046875 4.6640625 C-10.59049793 6.73086194 -14.52593663 8.17253886 -18 14 C-18.90852966 16.67726294 -19.47056645 19.20844129 -20 22 C-20.33 22 -20.66 22 -21 22 C-21.1934528 17.16367994 -20.79941022 13.49852555 -19 9 C-18.6596875 7.948125 -18.6596875 7.948125 -18.3125 6.875 C-15.870964 3.38709142 -11.86600842 1.67854851 -7.9375 0.25 C-5.2818253 -0.0926677 -2.67355366 -0.06076258 0 0 Z " fill="#9FB5DC" transform="translate(193,17)"/>
<path d="M0 0 C4.55555556 0.55555556 4.55555556 0.55555556 6 2 C6.1875 4.9375 6.1875 4.9375 6 8 C5.34 8.66 4.68 9.32 4 10 C-0.55555556 9.44444444 -0.55555556 9.44444444 -2 8 C-2.1875 5.0625 -2.1875 5.0625 -2 2 C-1.34 1.34 -0.68 0.68 0 0 Z " fill="#F5F5F6" transform="translate(269,34)"/>
<path d="M0 0 C4.55555556 0.55555556 4.55555556 0.55555556 6 2 C6.1875 4.9375 6.1875 4.9375 6 8 C5.34 8.66 4.68 9.32 4 10 C1.375 9.625 1.375 9.625 -1 9 C-1.625 5.625 -1.625 5.625 -2 2 C-1.34 1.34 -0.68 0.68 0 0 Z " fill="#F5F5F6" transform="translate(342,34)"/>
<path d="M0 0 C0.66 0 1.32 0 2 0 C2.66 1.65 3.32 3.3 4 5 C5.27875 4.814375 6.5575 4.62875 7.875 4.4375 C11.75 3.875 11.75 3.875 14 5 C14 5.66 14 6.32 14 7 C13.07767578 7.07347656 13.07767578 7.07347656 12.13671875 7.1484375 C11.32847656 7.22320312 10.52023438 7.29796875 9.6875 7.375 C8.88699219 7.44460937 8.08648437 7.51421875 7.26171875 7.5859375 C4.72775559 7.89564426 4.72775559 7.89564426 2 10 C1.63702064 11.97747122 1.63702064 11.97747122 1.8125 14.125 C1.9053125 16.043125 1.9053125 16.043125 2 18 C1.34 18 0.68 18 0 18 C0 12.06 0 6.12 0 0 Z " fill="#F4F4F5" transform="translate(118,30)"/>
<path d="M0 0 C3.375 -0.125 3.375 -0.125 7 0 C7.66 0.66 8.32 1.32 9 2 C8.46428571 5.53571429 8.46428571 5.53571429 7 7 C4.66702567 7.04092937 2.33294775 7.04241723 0 7 C0 4.69 0 2.38 0 0 Z " fill="#F8F8F8" transform="translate(92,29)"/>
<path d="M0 0 C0.66 0.33 1.32 0.66 2 1 C1.4070085 2.46291304 0.80016177 3.92021513 0.1875 5.375 C-0.31716797 6.59316406 -0.31716797 6.59316406 -0.83203125 7.8359375 C-2 10 -2 10 -5 12 C-7.6875 11.625 -7.6875 11.625 -10 11 C-9.236875 10.278125 -8.47375 9.55625 -7.6875 8.8125 C-5.28145128 6.29454204 -3.73827665 3.97990283 -2 1 C-1.34 0.67 -0.68 0.34 0 0 Z " fill="#DBDBDB" transform="translate(46,39)"/>
<path d="M0 0 C2.15377564 2.62198774 3.40072174 4.64404172 4 8 C1.69 8 -0.62 8 -3 8 C-1.125 1.125 -1.125 1.125 0 0 Z " fill="#CFCFCF" transform="translate(59,31)"/>
<path d="M0 0 C-0.99 0.495 -0.99 0.495 -2 1 C-2 1.99 -2 2.98 -2 4 C-4.375 4.625 -4.375 4.625 -7 5 C-7.66 4.34 -8.32 3.68 -9 3 C-6.38997624 -0.48003168 -4.1689578 -0.27793052 0 0 Z " fill="#8CA6D7" transform="translate(193,17)"/>
<path d="M0 0 C1.65 0 3.3 0 5 0 C4.67 1.32 4.34 2.64 4 4 C2.35 3.67 0.7 3.34 -1 3 C-0.67 2.01 -0.34 1.02 0 0 Z " fill="#EFEEEF" transform="translate(127,41)"/>
</svg>
