<svg xmlns="http://www.w3.org/2000/svg" version="1.1" width="372" height="100">
  <path d="M0 0 C122.76 0 245.52 0 372 0 C372 25.08 372 50.16 372 76 C249.24 76 126.48 76 0 76 C0 50.92 0 25.84 0 0 Z " fill="#FDFDFE" transform="translate(0,0)"/>
  <path d="M0 0 C5.33 5.29 8.28 9.58 8.44 17.25 C8.34 23.47 7.17 27.38 3 32 C-2.94 37.65 -8.7 38.58 -16.7 38.44 C-22.59 37.65 -26.79 34.86 -30.4 30.18 C-33.7 24.75 -34.92 19.31 -34 13 C-31.78 5.97 -28.43 1.88 -22.18 -1.94 C-15.14 -5.36 -6.43 -4.38 0 0 Z" fill="#567CC6" transform="translate(203,21)"/>
  <path d="M0 0 C4.45 2.11 7.16 4.4 9 9 C9.56 13.25 9.52 16.79 7.81 20.75 C5.71 23.36 3.44 25.7 1 28 C4.47 27.51 4.47 27.51 8 27 C8.17 26.46 8.34 25.92 8.51 25.37 C10.38 19.54 12.65 14 15.19 8.44 C15.74 7.21 15.74 7.21 16.3 5.96 C17.2 3.97 18.1 1.98 19 0 C21.64 0 24.28 0 27 0 C39 23.38 39 23.38 39 28 C36.36 28 33.72 28 31 28 C30.34 26.35 29.68 24.7 29 23 C25.04 22.67 21.08 22.34 17 22 C16.67 23.98 16.34 25.96 16 28 C13.69 28 11.38 28 9 28 C9.33 29.32 9.66 30.64 10 32 C6.91 34.06 3.85 34.53 0.15 34.46 C-3.3 33.72 -5.53 31.68 -8.19 29.45 C-10.02 27.84 -10.02 27.84 -12.69 26.94 C-15.92 25.63 -17.72 23.59 -20 21 C-21.36 16.93 -21.52 13.26 -21 9 C-16.42 -0.16 -9.48 -1.16 0 0 Z" fill="#090909" transform="translate(36,22)"/>
</svg>